<svg width="26" height="26" viewBox="0 0 26 26" fill="none" xmlns="http://www.w3.org/2000/svg">
<path d="M15.9789 6.70248C16.397 6.65021 16.8151 6.96378 16.8151 7.38189L18.1739 20.2905C18.2261 20.7086 17.9126 21.1266 17.4944 21.1266L4.63814 22.4854C4.22003 22.5377 3.80197 22.2241 3.80197 21.806L2.4432 8.94969C2.39093 8.53158 2.7045 8.11352 3.12261 8.11352L15.9789 6.70248Z" stroke="black" stroke-linecap="round" stroke-linejoin="round"/>
<path d="M6.99042 10.2562C6.04971 10.3607 5.31808 11.1969 5.42257 12.1899C5.52711 13.1306 6.36328 13.8622 7.35626 13.7577C8.29698 13.6532 9.02861 12.817 8.92412 11.824C8.81963 10.8311 7.93113 10.1517 6.99042 10.2562ZM11.7462 13.2874L9.23763 16.3708C9.13309 16.4753 8.97633 16.5276 8.87179 16.4231L8.29692 15.9527C8.19238 15.8482 7.98335 15.9005 7.93108 16.005L5.21348 19.3498C5.10894 19.4543 5.10894 19.6633 5.26576 19.7156C5.21348 19.7679 5.31803 19.7679 5.3703 19.7679L16.1884 18.6181C16.3452 18.6181 16.4497 18.4614 16.4497 18.3046C16.4497 18.2523 16.3974 18.2 16.3974 18.1478L12.1643 13.2352C12.0075 13.1829 11.8507 13.1828 11.7462 13.2874Z" stroke="black" stroke-linecap="round" stroke-linejoin="round"/>
<path d="M8.81909 7.48637L9.18493 4.1939C9.2372 3.77579 9.60305 3.46222 10.0211 3.51449L22.8774 4.87326C23.2955 4.92553 23.6091 5.29137 23.5568 5.70943L22.198 18.5657C22.198 18.9316 21.7799 19.2451 21.3619 19.2451L18.0171 18.8793" stroke="black" stroke-linecap="round" stroke-linejoin="round"/>
<path d="M17.7558 16.214L20.6302 16.5275C20.7869 16.5275 20.8915 16.423 20.9438 16.2662C20.9438 16.214 20.9438 16.1617 20.8915 16.1095L17.7558 10.413C17.7035 10.3084 17.4945 10.2562 17.3899 10.3084L17.1809 10.5175" stroke="black" stroke-linecap="round" stroke-linejoin="round"/>
</svg>
