<svg width="26" height="26" viewBox="0 0 26 26" fill="none" xmlns="http://www.w3.org/2000/svg">
<g clip-path="url(#clip0_1_7775)">
<path d="M21.6667 12.4584H3.25V22.2084C3.25 22.8067 3.73503 23.2917 4.33333 23.2917H21.6667C22.265 23.2917 22.75 22.8067 22.75 22.2084V13.5417C22.75 12.9434 22.265 12.4584 21.6667 12.4584Z" stroke="black" stroke-linejoin="round"/>
<path d="M1.7334 8.01672L19.0393 1.71785C19.6016 1.51322 20.2233 1.80311 20.428 2.36532L21.169 4.40133C21.3736 4.96356 21.0837 5.58522 20.5215 5.78985L3.21549 12.0887L1.7334 8.01672Z" stroke="black" stroke-linejoin="round"/>
<path d="M17.0034 2.45886L16.4495 7.27191" stroke="black"/>
<path d="M12.9313 3.94092L12.3774 8.75396" stroke="black"/>
<path d="M8.85934 5.4231L8.30542 10.2361" stroke="black"/>
<path d="M4.78732 6.90515L4.2334 11.7182" stroke="black"/>
</g>
<defs>
<clipPath id="clip0_1_7775">
<rect width="26" height="26" fill="white"/>
</clipPath>
</defs>
</svg>
