<svg width="26" height="26" viewBox="0 0 26 26" fill="none" xmlns="http://www.w3.org/2000/svg">
<g clip-path="url(#clip0_1_7814)">
<path d="M14.6127 8.23821C16.8336 8.23821 18.6347 6.43629 18.6347 4.21461C18.6347 1.99293 16.8336 0.191772 14.6127 0.191772C12.391 0.191772 10.5891 1.99293 10.5891 4.21461C10.5891 6.43629 12.391 8.23821 14.6127 8.23821ZM14.6127 1.19785C16.2766 1.19785 17.6302 2.55071 17.6302 4.21456C17.6302 5.87841 16.2766 7.23127 14.6127 7.23127C12.9488 7.23127 11.5952 5.87841 11.5952 4.21456C11.5952 2.55071 12.9489 1.19785 14.6127 1.19785Z" fill="black"/>
<path d="M13.8874 5.89198H14.0112C14.1477 5.89198 14.2588 5.78087 14.2588 5.64442V4.93348H14.7436C15.3918 4.93348 15.9203 4.47092 15.9203 3.90278C15.9203 3.33464 15.3918 2.87207 14.7436 2.87207H13.8875C13.751 2.87207 13.6399 2.98318 13.6399 3.11963V5.64442C13.6398 5.78087 13.751 5.89198 13.8874 5.89198ZM14.2588 3.41482H14.7436C15.0515 3.41482 15.3006 3.63384 15.3006 3.90278C15.3006 4.17258 15.0515 4.39073 14.7436 4.39073H14.2588V3.41482Z" fill="black"/>
<path d="M25.7703 8.64927C25.5934 8.59057 25.403 8.68579 25.345 8.86271C25.1927 9.31339 24.9887 9.5705 24.761 9.74107C24.6928 9.79104 24.6214 9.83151 24.5476 9.86884C24.5841 9.73076 24.6039 9.58873 24.6039 9.44436C24.6039 9.21823 24.554 8.98494 24.4293 8.77628C24.3222 8.59616 24.1707 8.45255 23.9985 8.35733C23.8263 8.26131 23.6319 8.21134 23.4351 8.21134C23.2447 8.21134 23.0511 8.26054 22.875 8.35891C22.8726 8.35972 22.8702 8.36048 22.8671 8.36211C22.8631 8.36449 22.8583 8.36531 22.8544 8.36845L22.8528 8.36927C22.852 8.36927 22.852 8.36927 22.852 8.36927L22.8441 8.37323C22.8441 8.37323 22.8441 8.3748 22.8432 8.3748C22.8432 8.3748 22.8424 8.3748 22.8424 8.37561C22.8361 8.37881 22.8313 8.38354 22.825 8.38831C22.825 8.38831 22.8241 8.38912 22.8226 8.38912C22.6567 8.49622 22.5242 8.63749 22.4338 8.80091C22.3378 8.97311 22.2878 9.16668 22.2878 9.36427C22.2878 9.56583 22.341 9.77134 22.4513 9.95618C22.5901 10.1863 22.7956 10.3727 23.0329 10.5092C23.0773 10.5354 23.1257 10.5576 23.1733 10.5806C23.0622 10.6496 22.9376 10.7155 22.8012 10.7711C22.6187 10.8457 22.4132 10.9004 22.191 10.9306C21.446 9.78642 20.3359 8.73347 18.7427 7.848C18.4896 7.70835 18.2309 7.58454 17.9674 7.47506C17.5207 7.93529 16.9803 8.30503 16.3781 8.55101C16.1417 8.6478 16.1147 8.84778 16.3908 8.8819C16.6352 8.91283 16.8788 8.94858 17.1216 8.99063V10.1999C15.0785 9.94201 13.5574 9.94201 11.5143 10.1999V8.99063C11.861 8.93192 12.2093 8.8819 12.56 8.84544C12.8838 8.81132 12.8798 8.57727 12.5775 8.42965C12.007 8.15431 11.5008 7.76472 11.0882 7.2926C9.80912 7.64254 8.67213 8.14796 7.83266 8.67243C6.33461 7.72506 5.00161 7.9718 4.59774 8.09083L5.14918 11.0322C4.04783 12.3938 3.16079 12.85 3.16079 12.85L0.935145 13.2888C0.620149 13.2888 0.326583 13.4475 0.153571 13.7101C-0.0193901 13.9736 -0.0479799 14.306 0.0765865 14.5948L1.78492 19.4627C1.9333 19.8055 2.27054 20.0276 2.64343 20.0276L6.29333 20.7917L7.83266 24.6662C8.6023 26.3706 10.6629 26.0127 10.7454 24.6114L11.0755 22.6873H16.4067C16.4067 22.6873 16.5718 23.545 16.6535 24.2821C16.7773 25.3945 18.4118 26.8378 20.0613 24.6114C21.9593 22.0485 24.9871 16.1793 22.5512 11.5455C22.8614 11.4757 23.1439 11.3694 23.3836 11.2369C23.5891 11.1234 23.766 10.9941 23.9144 10.8608C23.9675 10.8116 24.0159 10.7624 24.0619 10.7124C24.0651 10.7116 24.0691 10.7108 24.0715 10.71L24.0723 10.7108C24.4293 10.6521 24.815 10.5371 25.1609 10.2808C25.5077 10.0253 25.7989 9.63093 25.983 9.07391C26.0409 8.89759 25.9464 8.70798 25.7703 8.64927ZM23.8739 9.77281C23.8374 9.87757 23.7835 9.97512 23.7216 10.0545C23.6065 10.0378 23.4812 9.99183 23.3677 9.92673C23.2178 9.84182 23.0916 9.71964 23.0281 9.61173V9.61254C22.9813 9.53317 22.9598 9.44908 22.9598 9.36417C22.9598 9.28165 22.9813 9.19913 23.0209 9.12692C23.0606 9.05552 23.1177 8.99444 23.1939 8.94919C23.2701 8.90476 23.3526 8.88414 23.4351 8.88414C23.5176 8.88333 23.5993 8.90476 23.6723 8.94447C23.7437 8.98494 23.8065 9.04364 23.8525 9.12063C23.9032 9.20472 23.9318 9.31659 23.9318 9.44436C23.9318 9.55064 23.912 9.6649 23.8739 9.77281Z" fill="black"/>
</g>
<defs>
<clipPath id="clip0_1_7814">
<rect width="26" height="26" fill="white"/>
</clipPath>
</defs>
</svg>
