<svg width="26" height="26" viewBox="0 0 26 26" fill="none" xmlns="http://www.w3.org/2000/svg">
<path fill-rule="evenodd" clip-rule="evenodd" d="M10.5647 13.0139C10.5645 11.9803 11.2762 11.0903 12.2646 10.8885C13.253 10.6866 14.2429 11.229 14.6288 12.1839C15.0145 13.1389 14.689 14.2403 13.8512 14.8148C13.0132 15.3892 11.8964 15.2765 11.1837 14.5457C10.7875 14.1395 10.5648 13.5885 10.5647 13.0139Z" stroke="black" stroke-width="1.4" stroke-linecap="round" stroke-linejoin="round"/>
<path fill-rule="evenodd" clip-rule="evenodd" d="M11.1667 5.9235C11.1522 5.36047 11.4367 4.83371 11.9098 4.5478C12.383 4.2619 12.9702 4.2619 13.4433 4.5478C13.9164 4.83371 14.201 5.36047 14.1865 5.9235V6.70025C15.3326 6.98826 16.3775 7.59913 17.2031 8.46392L17.8042 8.10209C18.1515 7.89356 18.5661 7.83737 18.9542 7.94624C19.3424 8.0551 19.6715 8.31983 19.867 8.68059C20.2841 9.43282 20.0387 10.389 19.3145 10.8332L18.7548 11.1701C19.0987 12.3725 19.0987 13.651 18.7548 14.8534L19.3145 15.1903C20.0412 15.6346 20.2869 16.594 19.867 17.3472C19.6711 17.7077 19.3419 17.9719 18.9538 18.0803C18.5656 18.1888 18.1511 18.1323 17.8042 17.9236L17.2031 17.5617C16.3775 18.4275 15.3322 19.0392 14.1854 19.3276V20.1043C14.1999 20.6673 13.9154 21.1942 13.4422 21.4801C12.9691 21.7659 12.382 21.7659 11.9088 21.4801C11.4357 21.1942 11.1511 20.6673 11.1656 20.1043V19.3276C10.0194 19.0396 8.97457 18.4287 8.14896 17.5639L7.54796 17.9257C7.20074 18.134 6.78641 18.19 6.39848 18.0811C6.01055 17.9722 5.68169 17.7077 5.48616 17.3472C5.06903 16.595 5.31443 15.6388 6.03857 15.1947L6.59839 14.8577C6.2544 13.6554 6.2544 12.3768 6.59839 11.1744L6.03857 10.8375C5.31194 10.3932 5.06622 9.4338 5.48616 8.68059C5.68206 8.32019 6.01125 8.05594 6.39941 7.94749C6.78758 7.83904 7.20197 7.89555 7.54901 8.10425L8.15002 8.46609C8.97524 7.60011 10.0201 6.98809 11.1667 6.69917V5.9235Z" stroke="black" stroke-width="1.4" stroke-linecap="round" stroke-linejoin="round"/>
</svg>
