<svg width="26" height="26" viewBox="0 0 26 26" fill="none" xmlns="http://www.w3.org/2000/svg">
<g clip-path="url(#clip0_1_7786)">
<path d="M19.4995 5.62536C19.4995 6.00548 19.88 6.38559 20.4118 6.38559C21.1717 6.38559 21.3997 6.0815 21.3997 5.62536C21.3997 5.54934 21.3997 5.54934 21.3997 5.47366C21.324 5.24559 21.0956 5.09355 20.8683 4.9415C20.7919 4.9415 20.6402 4.86548 20.4885 4.86548C19.9556 4.86582 19.4995 5.16957 19.4995 5.62536Z" fill="black"/>
<path d="M21.0964 3.11652C21.0197 2.66039 20.7159 2.28027 20.3362 2.28027C19.9557 2.28027 19.7276 2.66039 19.8043 3.11652C19.881 3.57265 20.1841 3.95277 20.5642 3.95277C20.8683 3.95277 21.1721 3.57265 21.0964 3.11652Z" fill="black"/>
<path d="M17.6752 8.81826L18.9676 7.52588C19.7274 8.13406 20.6407 8.51417 21.6287 8.51417C23.985 8.51417 25.8859 6.61327 25.8859 4.25691C25.8853 1.90022 23.985 0 21.6283 0C19.2723 0 17.3711 1.90056 17.3711 4.25725C17.3711 5.32157 17.7509 6.2335 18.3594 6.91804L17.0667 8.21076C17.2947 8.43849 17.5228 8.66689 17.6752 8.81826ZM22.3125 2.88851H23.1484V2.0526H23.4525V2.88885H24.2891V3.19294H23.4525V4.02953H23.1484V3.1926H22.3125V2.88851ZM20.412 4.33294C20.412 4.25691 20.412 4.18089 20.4887 4.10487C20.412 4.10487 20.412 4.10487 20.337 4.10487C19.7285 4.10487 19.2723 3.64874 19.2723 3.11658C19.2723 2.58442 19.8802 2.12829 20.4887 2.12829H21.8564L21.5523 2.35635H21.0962C21.4003 2.43272 21.5523 2.81283 21.5523 3.1926C21.5523 3.49669 21.4003 3.72476 21.1719 3.95283C20.9438 4.10487 20.8678 4.18089 20.8678 4.33294C20.8678 4.48498 21.0962 4.71305 21.2479 4.78907C21.6277 5.01714 21.704 5.32123 21.704 5.70134C21.704 6.23316 21.2479 6.68963 20.336 6.68963C19.5761 6.68963 18.8915 6.38554 18.8915 5.85338C18.8915 5.32123 19.4994 4.86509 20.2596 4.86509C20.336 4.86509 20.4113 4.86509 20.4877 4.86509C20.4877 4.63737 20.412 4.48532 20.412 4.33294Z" fill="black"/>
<path d="M21.6284 17.4851C20.6404 17.4851 19.6521 17.8649 18.9673 18.4734L17.6752 17.1807C17.5228 17.4087 17.2948 17.5601 17.1431 17.7121L18.4358 19.0049C17.8276 19.7644 17.4475 20.6777 17.4475 21.666C17.4475 24.0223 19.3487 25.9232 21.7051 25.9232C24.0611 25.9232 25.9627 24.0223 25.9627 21.666C25.8853 19.3093 23.9851 17.4851 21.6284 17.4851ZM20.412 23.6429H19.5758V20.9818H20.412V23.6429ZM20.0319 20.6024C19.7278 20.6024 19.5001 20.3739 19.5001 20.1455C19.5001 19.9175 19.7282 19.6894 20.0319 19.6894C20.3357 19.6894 20.5637 19.9175 20.5637 20.1455C20.4877 20.45 20.336 20.6024 20.0319 20.6024ZM23.833 23.6429H22.8447V22.2748C22.8447 21.8951 22.693 21.6667 22.3883 21.6667C22.1602 21.6667 22.0085 21.8187 21.9321 21.9708C21.9321 22.0478 21.9321 22.1231 21.9321 22.1992V23.6439H21.0199C21.0199 23.6439 21.0199 21.2112 21.0199 20.9828H21.9321V21.3629C22.0085 21.2112 22.3126 20.9068 22.7687 20.9068C23.3766 20.9068 23.833 21.2866 23.833 22.1231V23.6429Z" fill="black"/>
<path d="M8.24851 17.1814L6.95612 18.4741C6.1959 17.8656 5.28363 17.4858 4.29534 17.4858C1.93865 17.4858 0.0380859 19.3871 0.0380859 21.7427C0.0380859 24.0994 1.93865 26.0003 4.29534 26.0003C6.6517 26.0003 8.5526 24.0994 8.5526 21.7427C8.5526 20.7545 8.17248 19.7665 7.5643 19.082L8.85668 17.7892C8.62862 17.5608 8.40055 17.3324 8.24851 17.1814ZM6.12022 21.0582C6.12022 22.3506 5.13193 23.7947 3.38341 23.7947C2.85159 23.7947 2.3191 23.6426 1.93899 23.3379C2.01501 23.3379 2.09103 23.3379 2.16705 23.3379C2.62319 23.3379 3.0033 23.1861 3.38341 22.9581C3.0033 22.9581 2.62319 22.654 2.47114 22.2735C2.54716 22.2735 2.62285 22.2735 2.62285 22.2735C2.69921 22.2735 2.77489 22.2735 2.85125 22.2735C2.39478 22.1968 2.09103 21.8174 2.09103 21.3613C2.24307 21.4376 2.39512 21.513 2.54716 21.513C2.3191 21.3613 2.09103 21.0568 2.09103 20.7528C2.09103 20.6014 2.16705 20.4487 2.24308 20.2966C2.69921 20.9051 3.38307 21.2849 4.21932 21.2849C4.21932 21.2082 4.21932 21.1332 4.21932 21.0568C4.21932 20.5247 4.67579 20.0686 5.20761 20.0686C5.5117 20.0686 5.73977 20.2203 5.89215 20.3726C6.12022 20.2963 6.34828 20.2206 6.50033 20.1446C6.42397 20.3726 6.27192 20.5243 6.04386 20.6761C6.27192 20.6761 6.42397 20.5997 6.57601 20.5243C6.42397 20.7524 6.27192 20.9041 6.11988 20.9805C6.12022 20.9818 6.12022 20.9818 6.12022 21.0582Z" fill="black"/>
<path d="M4.29534 8.51456C5.28363 8.51456 6.27158 8.13445 6.95612 7.52627L8.2485 8.81865C8.40055 8.59058 8.62862 8.43888 8.78066 8.28683L7.48794 6.99445C8.09612 6.23423 8.47623 5.32196 8.47623 4.33367C8.47623 1.97698 6.57567 0.076416 4.21898 0.076416C1.86262 0.076416 0.0380859 1.97698 0.0380859 4.33367C0.0380859 6.61366 1.93865 8.51456 4.29534 8.51456ZM3.30705 3.57277H3.76318V3.11663C3.76318 2.50845 3.99125 2.12834 4.75147 2.12834H5.35965V2.88857H4.97954C4.67545 2.88857 4.67545 2.96459 4.67545 3.19266V3.57277H5.35965L5.28363 4.33299H4.59875V6.46162H3.68648V4.33299H3.23069V3.57277H3.30705Z" fill="black"/>
<path d="M16.8393 15.1281C16.7626 14.9767 16.6109 14.8997 16.5352 14.8997C15.851 14.6716 15.2432 14.5202 14.559 14.2918C14.483 14.2918 14.3309 14.1401 14.3309 13.8357C14.3309 13.6833 14.3309 13.6073 14.1792 13.6073C14.1025 13.6073 14.1792 13.6073 14.1025 13.5313C14.0268 13.2272 14.0268 13.0748 14.0268 12.9991C14.0268 12.9234 14.1025 12.9227 14.1025 12.8471C14.3309 12.543 14.4066 12.0872 14.4066 11.9348C14.4066 11.9348 14.483 11.9348 14.483 11.8584C14.559 11.7064 14.559 11.7064 14.559 11.478C14.6357 11.3266 14.6357 11.0985 14.483 11.0985C14.4066 11.1746 14.4066 11.0985 14.4066 10.9465V10.0342C14.4066 9.73014 14.1782 9.50241 14.0268 9.42639C13.7981 9.27401 13.7227 9.19798 13.6464 9.19798C13.57 9.12196 13.57 9.04594 13.6464 8.96992C13.7224 8.89423 13.7981 8.89423 13.7981 8.81787C13.7981 8.81787 13.7981 8.81787 13.7217 8.81787C13.6454 8.81787 13.1899 8.89457 12.9618 8.96992C12.5817 9.04594 12.2016 9.19798 11.8972 9.42639C11.6691 9.57809 11.5171 9.80616 11.5171 10.1109C11.5171 10.2623 11.5171 10.7188 11.5171 11.0232C11.5171 11.0999 11.5171 11.1752 11.4411 11.0999C11.213 11.0999 11.365 11.404 11.365 11.4793C11.365 11.6314 11.4411 11.7077 11.5167 11.8598C11.5167 11.9361 11.5931 11.9361 11.5931 11.9361C11.6691 12.1642 11.7451 12.6203 11.8972 12.8484C11.8972 12.8484 11.9736 12.9248 11.9736 13.0005C11.9736 13.1525 11.9736 13.3806 11.8972 13.5326C11.8972 13.5326 11.8972 13.609 11.8212 13.609C11.6691 13.609 11.6691 13.685 11.6691 13.837C11.6691 14.0651 11.5171 14.2935 11.4411 14.2935C11.0609 14.4449 9.92095 14.8253 9.5405 14.9014C9.31243 14.9781 9.23641 15.0534 9.16039 15.1294L8.78027 16.0417C10.3004 16.0417 11.0609 16.954 12.6574 17.2581H13.4176C15.0141 17.03 16.1541 16.0417 17.2188 16.0417L16.8393 15.1281Z" fill="black"/>
</g>
<defs>
<clipPath id="clip0_1_7786">
<rect width="26" height="26" fill="white"/>
</clipPath>
</defs>
</svg>
