<svg width="26" height="26" viewBox="0 0 26 26" fill="none" xmlns="http://www.w3.org/2000/svg">
<path d="M16.2216 22.6362C14.1961 23.318 12.0065 23.3396 9.96793 22.6979C7.92937 22.0563 6.14689 20.7845 4.87697 19.0656C3.60705 17.3467 2.91517 15.2692 2.90086 13.1321C2.88656 10.995 3.55057 8.9084 4.79736 7.17261C6.04415 5.43683 7.80944 4.1413 9.83924 3.47244C11.869 2.80358 14.0587 2.79587 16.0931 3.45041C18.1276 4.10496 19.902 5.38802 21.161 7.11498C22.4199 8.84194 23.0986 10.9238 23.0994 13.0609C23.0667 13.8801 22.9676 14.6953 22.8028 15.4984" stroke="black" stroke-width="1.4"/>
<path d="M15.3806 20.7594C14.6541 21.5849 13.8576 22.346 13 23.0344" stroke="black" stroke-width="1.4"/>
<path d="M13 2.84375C15.7261 5.22556 17.413 8.57885 17.7003 12.1875C17.7593 12.8426 17.7715 13.501 17.7369 14.1578" stroke="black" stroke-width="1.4"/>
<path d="M13 2.84375C11.5209 4.13298 10.3326 5.72179 9.51391 7.50492C8.69518 9.28806 8.2647 11.2248 8.25098 13.1869C8.25098 19.7681 11.2085 21.7181 12.9879 23.0344" stroke="black" stroke-width="1.4"/>
<path d="M4.21289 8.08435H21.836" stroke="black" stroke-width="1.4"/>
<path d="M13 2.83972V23.0344" stroke="black" stroke-width="1.4"/>
<path d="M4.48901 18.4763H15.0475" stroke="black" stroke-width="1.4"/>
<path d="M2.90063 13.1869L23.0994 12.9391" stroke="black" stroke-width="1.4"/>
<path d="M21.7627 23.1563L23.5624 21.3526L20.3124 18.1026L22.1608 16.9204C22.1878 16.9045 22.2092 16.8808 22.2224 16.8524C22.2355 16.824 22.2397 16.7923 22.2344 16.7614C22.2292 16.7306 22.2146 16.7021 22.1928 16.6797C22.1709 16.6573 22.1428 16.6421 22.1121 16.636L15.9005 15.1817C15.8749 15.1764 15.8483 15.1776 15.8232 15.1852C15.7982 15.1927 15.7754 15.2064 15.7569 15.2249C15.7383 15.2434 15.7247 15.2662 15.7172 15.2913C15.7096 15.3163 15.7084 15.3429 15.7136 15.3685L17.0624 21.6979C17.0689 21.7287 17.0844 21.7568 17.1069 21.7788C17.1294 21.8007 17.158 21.8154 17.1889 21.8211C17.2198 21.8268 17.2517 21.8231 17.2806 21.8106C17.3094 21.798 17.3339 21.7772 17.3508 21.7507L18.5127 19.9063L21.7627 23.1563Z" stroke="black" stroke-width="1.4"/>
</svg>
