<svg width="26" height="26" viewBox="0 0 29 28" fill="none" xmlns="http://www.w3.org/2000/svg">
<path d="M19.3125 1.16675C17.9673 1.24491 16.423 1.99432 15.5049 2.94865C14.6754 3.81665 14.0209 5.10578 14.2881 6.35295C15.7499 6.39145 17.2172 5.62263 18.0957 4.6508C18.9159 3.74196 19.5377 2.47341 19.3125 1.16675ZM19.3923 6.35067C17.2818 6.35067 16.3993 7.64722 14.9375 7.64722C13.4337 7.64722 12.0589 6.4327 10.2389 6.4327C7.76327 6.43387 4 8.72713 4 14.13C4 19.0451 8.45393 24.5001 10.9681 24.5001C12.4953 24.5152 12.8655 23.5399 14.9375 23.5294C17.0118 23.5142 17.4594 24.5129 18.9889 24.5001C20.7109 24.4872 22.0558 22.5949 23.0381 21.0958C23.7428 20.0225 24.0324 19.4745 24.5784 18.2611C20.5266 17.2345 19.7205 10.7004 24.5784 9.34937C23.6614 7.78486 20.9848 6.35067 19.3923 6.35067Z" fill="#909090" />
</svg>