<svg width="39" height="39" viewBox="0 0 39 39" fill="none" xmlns="http://www.w3.org/2000/svg">
<rect width="39" height="39" rx="12" fill="#FFDFD2"/>
<path d="M20.9134 14.3354L17.5087 14.3354C16.9342 14.3354 16.4578 13.8061 16.4578 13.1678C16.4578 12.5295 16.9342 12.0002 17.5087 12.0002L23.4494 12.0002C23.5895 12.0002 23.7157 12.0313 23.8558 12.0936C24.108 12.2182 24.3181 12.4361 24.4302 12.7319C24.4863 12.872 24.5143 13.0277 24.5143 13.1834L24.5143 19.7687C24.5143 20.407 24.0379 20.9363 23.4634 20.9363C22.889 20.9363 22.4126 20.407 22.4126 19.7687L22.4126 15.9857L16.2757 22.8045C15.8694 23.2559 15.1968 23.2559 14.7905 22.8045C14.3841 22.353 14.3841 21.6057 14.7905 21.1543L20.9134 14.3354Z" fill="#ED0006"/>
<path d="M8.97132 26.0597C9.16436 25.5315 9.78804 25.2472 10.382 25.4232C15.906 27.1024 21.9796 27.1024 27.5036 25.4232C28.0827 25.2472 28.7212 25.5315 28.9143 26.0597C29.1073 26.5878 28.7955 27.1701 28.2164 27.3462C25.2316 28.2535 22.0984 28.714 18.9502 28.714C15.8021 28.714 12.6688 28.2535 9.68409 27.3462C9.09011 27.1566 8.77827 26.5878 8.97132 26.0597Z" fill="#ED0006"/>
</svg>
