<svg width="39" height="39" viewBox="0 0 39 39" fill="none" xmlns="http://www.w3.org/2000/svg">
<rect width="39" height="39" rx="12" fill="#CEF5CB"/>
<path d="M18.0866 19.9507H21.4913C22.0658 19.9507 22.5422 20.48 22.5422 21.1183C22.5422 21.7566 22.0658 22.2859 21.4913 22.2859H15.5506C15.4105 22.2859 15.2844 22.2548 15.1442 22.1925C14.892 22.068 14.6819 21.85 14.5698 21.5542C14.5137 21.4141 14.4857 21.2584 14.4857 21.1027V14.5174C14.4857 13.8791 14.9621 13.3498 15.5366 13.3498C16.111 13.3498 16.5874 13.8791 16.5874 14.5174V18.3005L22.7243 11.4817C23.1306 11.0302 23.8032 11.0302 24.2095 11.4817C24.6159 11.9331 24.6159 12.6804 24.2095 13.1319L18.0866 19.9507Z" fill="#008000"/>
<path d="M8.97132 25.2028C9.16436 24.6746 9.78804 24.3902 10.382 24.5663C15.906 26.2455 21.9796 26.2455 27.5036 24.5663C28.0827 24.3902 28.7212 24.6746 28.9143 25.2028C29.1073 25.7309 28.7955 26.3132 28.2164 26.4893C25.2316 27.3966 22.0984 27.857 18.9502 27.857C15.8021 27.857 12.6688 27.3966 9.68409 26.4893C9.09011 26.2997 8.77827 25.7309 8.97132 25.2028Z" fill="#008000"/>
</svg>
