<svg width="14" height="14" viewBox="0 0 14 14" fill="none" xmlns="http://www.w3.org/2000/svg">
<path d="M12.3337 2.73324C12.3337 2.35987 12.3334 2.17304 12.2607 2.03044C12.1969 1.905 12.0952 1.80308 11.9698 1.73916C11.8272 1.6665 11.6401 1.6665 11.2667 1.6665H2.7334C2.36003 1.6665 2.17353 1.6665 2.03093 1.73916C1.90549 1.80308 1.80357 1.905 1.73965 2.03044C1.66699 2.17304 1.66699 2.35987 1.66699 2.73324V3.22474C1.66699 3.3878 1.66699 3.46939 1.68541 3.54612C1.70175 3.61414 1.72875 3.67912 1.7653 3.73877C1.80651 3.80602 1.86427 3.86378 1.97949 3.979L5.35465 7.35417C5.46995 7.46944 5.52729 7.52677 5.56851 7.5941C5.60507 7.6537 5.63243 7.7189 5.64877 7.78697C5.66699 7.8629 5.66699 7.9435 5.66699 8.1033V11.2738C5.66699 11.8453 5.66699 12.1312 5.78733 12.3033C5.89246 12.4536 6.05459 12.5538 6.23599 12.5806C6.44373 12.6113 6.69946 12.4836 7.21059 12.2281L7.74393 11.9614C7.95799 11.8544 8.06473 11.8007 8.14293 11.7208C8.21206 11.6502 8.26499 11.5655 8.29719 11.4721C8.33366 11.3664 8.33366 11.2465 8.33366 11.0072V8.10824C8.33366 7.94517 8.33366 7.8637 8.35206 7.78697C8.36839 7.7189 8.39539 7.6537 8.43199 7.5941C8.47293 7.52724 8.53013 7.47004 8.64386 7.3563L8.64619 7.35417L12.0213 3.979C12.1366 3.8637 12.1939 3.80605 12.2352 3.73877C12.2717 3.67912 12.2991 3.61414 12.3155 3.54612C12.3337 3.47018 12.3337 3.38946 12.3337 3.2297V2.73324Z" stroke="black" stroke-width="1.4" stroke-linecap="round" stroke-linejoin="round"/>
</svg>
