<svg className="inline-block" width="33" height="33" viewBox="0 0 35 35" fill="none" xmlns="http://www.w3.org/2000/svg">
<path d="M17.4151 3.44115C21.8988 3.44115 22.5103 3.44115 24.3445 3.44115C25.975 3.44115 26.7902 3.84877 27.4016 4.05257C28.2169 4.46019 28.8283 4.664 29.4397 5.27542C30.0511 5.88684 30.4588 6.49827 30.6626 7.3135C30.8664 7.92492 31.0702 8.74015 31.274 10.3706C31.274 12.2049 31.274 12.6125 31.274 17.3001C31.274 21.9877 31.274 22.3953 31.274 24.2295C31.274 25.86 30.8664 26.6752 30.6626 27.2867C30.255 28.1019 30.0511 28.7133 29.4397 29.3247C28.8283 29.9362 28.2169 30.3438 27.4016 30.5476C26.7902 30.7514 25.975 30.9552 24.3445 31.159C22.5103 31.159 22.1026 31.159 17.4151 31.159C12.7275 31.159 12.3199 31.159 10.4856 31.159C8.85514 31.159 8.03991 30.7514 7.42849 30.5476C6.61326 30.14 6.00183 29.9362 5.39041 29.3247C4.77899 28.7133 4.37137 28.1019 4.16756 27.2867C3.96376 26.6752 3.75995 25.86 3.55614 24.2295C3.55614 22.3953 3.55614 21.9877 3.55614 17.3001C3.55614 12.6125 3.55614 12.2049 3.55614 10.3706C3.55614 8.74015 3.96376 7.92492 4.16756 7.3135C4.57518 6.49827 4.77899 5.88684 5.39041 5.27542C6.00183 4.664 6.61326 4.25638 7.42849 4.05257C8.03991 3.84877 8.85514 3.64496 10.4856 3.44115C12.3199 3.44115 12.9313 3.44115 17.4151 3.44115ZM17.4151 0.384033C12.7275 0.384033 12.3199 0.384033 10.4856 0.384033C8.65133 0.384033 7.42849 0.79165 6.40945 1.19927C5.39041 1.60688 4.37137 2.2183 3.35233 3.23734C2.33329 4.25638 1.92568 5.07161 1.31426 6.29446C0.90664 7.3135 0.702831 8.53634 0.499023 10.3706C0.499023 12.2049 0.499023 12.8163 0.499023 17.3001C0.499023 21.9877 0.499023 22.3953 0.499023 24.2295C0.499023 26.0638 0.90664 27.2867 1.31426 28.3057C1.72187 29.3247 2.33329 30.3438 3.35233 31.3628C4.37137 32.3818 5.1866 32.7895 6.40945 33.4009C7.42849 33.8085 8.65133 34.0123 10.4856 34.2161C12.3199 34.2161 12.9313 34.2161 17.4151 34.2161C21.8988 34.2161 22.5103 34.2161 24.3445 34.2161C26.1788 34.2161 27.4016 33.8085 28.4207 33.4009C29.4397 32.9933 30.4588 32.3818 31.4778 31.3628C32.4968 30.3438 32.9045 29.5285 33.5159 28.3057C33.9235 27.2867 34.1273 26.0638 34.3311 24.2295C34.3311 22.3953 34.3311 21.7838 34.3311 17.3001C34.3311 12.8163 34.3311 12.2049 34.3311 10.3706C34.3311 8.53634 33.9235 7.3135 33.5159 6.29446C33.1083 5.27542 32.4968 4.25638 31.4778 3.23734C30.4588 2.2183 29.6435 1.81069 28.4207 1.19927C27.4016 0.79165 26.1788 0.587841 24.3445 0.384033C22.5103 0.384033 22.1026 0.384033 17.4151 0.384033Z" fill="#B0B0B0"/>
<path d="M17.4151 8.53634C12.5237 8.53634 8.65133 12.4087 8.65133 17.3001C8.65133 22.1915 12.5237 26.0638 17.4151 26.0638C22.3065 26.0638 26.1788 22.1915 26.1788 17.3001C26.1788 12.4087 22.3065 8.53634 17.4151 8.53634ZM17.4151 23.0067C14.358 23.0067 11.7084 20.561 11.7084 17.3001C11.7084 14.243 14.1541 11.5935 17.4151 11.5935C20.4722 11.5935 23.1217 14.0392 23.1217 17.3001C23.1217 20.3572 20.4722 23.0067 17.4151 23.0067Z" fill="#B0B0B0"/>
<path d="M26.3826 10.3706C27.5082 10.3706 28.4207 9.45813 28.4207 8.33254C28.4207 7.20694 27.5082 6.29446 26.3826 6.29446C25.257 6.29446 24.3445 7.20694 24.3445 8.33254C24.3445 9.45813 25.257 10.3706 26.3826 10.3706Z" fill="#B0B0B0"/>
</svg>