<svg width="115" height="94" viewBox="0 0 115 94" fill="none" xmlns="http://www.w3.org/2000/svg">
<path d="M11.2598 88.786C20.5274 88.786 53.0033 18.4917 62.3098 18.4917C71.6163 18.4917 84.4809 50.4648 93.3733 50.4648C102.266 50.4648 113.82 1.11719 113.82 1.11719" stroke="#05C283" stroke-width="2" stroke-linecap="round"/>
<ellipse cx="113.522" cy="2.4735" rx="1.47799" ry="2.4735" fill="#07E098"/>
<ellipse cx="93.6713" cy="50.0311" rx="1.47799" ry="2.4735" fill="#07E098"/>
<ellipse cx="62.6079" cy="18.0585" rx="1.47799" ry="2.4735" fill="#07E098"/>
<ellipse cx="43.518" cy="42.7733" rx="1.47799" ry="2.4735" fill="#07E098"/>
<path d="M1.57031 90.0453C32.9203 87.5266 44.1095 53.5235 50.5903 53.5235C57.0711 53.5235 58.0729 70.3987 66.0296 70.3987C73.9863 70.3987 82.3038 72.5526 89.9251 72.5526C97.5465 72.5526 106.691 50.5366 113.821 50.5366" stroke="#007DD6" stroke-width="2" stroke-linecap="round"/>
<ellipse cx="112.783" cy="50.0316" rx="1.47799" ry="2.4735" fill="#0095FF"/>
<ellipse cx="93.6723" cy="70.3783" rx="1.47799" ry="2.4735" fill="#0095FF"/>
<ellipse cx="62.6088" cy="70.3783" rx="1.47799" ry="2.4735" fill="#0095FF"/>
<ellipse cx="51.4975" cy="52.8485" rx="1.47799" ry="2.4735" fill="#0095FF"/>
<ellipse cx="2.47799" cy="90.6297" rx="1.47799" ry="2.4735" fill="#0095FF"/>
<ellipse cx="16.9965" cy="81.036" rx="1.47799" ry="2.4735" fill="#0095FF"/>
</svg>
