<svg className="inline-block" width="33" height="33" viewBox="0 0 34 33" fill="none" xmlns="http://www.w3.org/2000/svg">
<path d="M8.28719 32.6046H1.35771V10.7972H8.28719V32.6046ZM4.82245 7.74006C2.58057 7.74006 0.950104 6.10959 0.950104 3.86771C0.950104 1.62582 2.78438 -0.00463867 4.82245 -0.00463867C7.06434 -0.00463867 8.6948 1.62582 8.6948 3.86771C8.6948 6.10959 7.06434 7.74006 4.82245 7.74006ZM33.5593 32.6046H26.6299V20.7838C26.6299 17.319 25.2032 16.3 23.1651 16.3C21.1271 16.3 19.089 17.9304 19.089 20.9876V32.6046H12.1595V10.7972H18.6814V13.8543C19.2928 12.4276 21.7385 10.1857 25.2032 10.1857C29.0756 10.1857 33.1517 12.4276 33.1517 19.1533V32.6046H33.5593Z" fill="#B0B0B0"/>
</svg>