<svg className="inline-block" width="33" height="33" viewBox="0 0 33 33" fill="none" xmlns="http://www.w3.org/2000/svg">
<path d="M16.7339 0.403076C7.7664 0.403076 0.429321 7.74015 0.429321 16.7077C0.429321 23.4334 4.50548 29.14 10.2121 31.5857C10.2121 30.3628 10.2121 29.14 10.4159 27.9171C10.8235 26.4905 12.454 18.9496 12.454 18.9496C12.454 18.9496 11.8426 17.9305 11.8426 16.3001C11.8426 13.8544 13.2692 12.0201 14.8997 12.0201C16.3263 12.0201 17.1415 13.0392 17.1415 14.4658C17.1415 15.8925 16.1225 18.1343 15.7149 20.1724C15.3073 21.8029 16.5301 23.2295 18.3644 23.2295C21.4215 23.2295 23.4596 19.3572 23.4596 14.4658C23.4596 10.7973 21.0139 8.14777 16.7339 8.14777C11.8426 8.14777 8.78545 11.8163 8.78545 15.8925C8.78545 17.3191 9.19306 18.3382 9.80449 19.1534C10.0083 19.561 10.2121 19.561 10.0083 19.9686C10.0083 20.1724 9.80448 20.9877 9.60067 21.1915C9.39686 21.5991 9.19306 21.8029 8.78545 21.5991C6.54357 20.58 5.52451 18.1343 5.52451 15.281C5.52451 10.5935 9.39685 5.09065 17.1415 5.09065C23.4596 5.09065 27.5357 9.57442 27.5357 14.4658C27.5357 20.7838 24.071 25.6752 18.772 25.6752C16.9377 25.6752 15.3073 24.6562 14.6959 23.6372C14.6959 23.6372 13.6768 27.3057 13.473 28.1209C13.0654 29.3438 12.454 30.5666 11.8426 31.5857C13.2692 31.9933 14.8997 32.1971 16.5301 32.1971C25.4977 32.1971 32.8347 24.86 32.8347 15.8925C33.0385 7.74016 25.7015 0.403076 16.7339 0.403076Z" fill="#B0B0B0"/>
</svg>