<svg width="10" height="9" viewBox="0 0 10 9" fill="none" xmlns="http://www.w3.org/2000/svg">
<path d="M6.62394 0.914732C6.62394 0.680291 6.81399 0.490234 7.04844 0.490234C8.4551 0.490234 9.59543 1.63056 9.59543 3.03722V6.43321C9.59543 7.83986 8.4551 8.98019 7.04844 8.98019H3.65246C2.24579 8.98019 1.10547 7.83986 1.10547 6.43321C1.10547 6.19876 1.29552 6.00871 1.52997 6.00871C1.76441 6.00871 1.95446 6.19876 1.95446 6.43321C1.95446 7.37096 2.71468 8.1312 3.65246 8.1312H7.04844C7.9862 8.1312 8.74643 7.37096 8.74643 6.43321V3.03722C8.74643 2.09945 7.9862 1.33923 7.04844 1.33923C6.81399 1.33923 6.62394 1.14917 6.62394 0.914732Z" fill="black"/>
<path d="M1.83007 5.06823L1.59846 4.85177M1.83007 5.06823C1.99613 4.89053 2.21901 4.66156 2.45151 4.44969C2.68835 4.23392 2.91797 4.05198 3.09922 3.95409C3.2547 3.87011 3.54665 3.81844 3.82258 3.82189C3.91775 3.82308 3.99799 3.83079 4.05837 3.84152C4.06027 4.11964 4.05776 4.62777 4.05648 4.84672C4.05463 5.16391 4.43314 5.32865 4.66413 5.11208L6.59823 3.29886C6.74485 3.16142 6.75092 2.9307 6.61177 2.78574L4.67699 0.770359C4.45189 0.535891 4.05587 0.695222 4.05587 1.02024V1.83501C3.88314 1.82204 3.66367 1.81227 3.43159 1.81894C3.02913 1.83051 2.51045 1.89216 2.15505 2.13897C2.1108 2.16969 2.06848 2.20324 2.02829 2.23823C1.31479 2.85932 1.15471 3.84714 1.05993 4.63694L1.05145 4.70761C0.998611 5.1479 1.54089 5.37764 1.83007 5.06823ZM4.22864 4.64755L4.3751 4.80376M4.22864 4.64755V4.64755Z" stroke="black" stroke-width="0.727711" stroke-linecap="round"/>
</svg>
