<svg width="35" height="35" viewBox="0 0 35 35" fill="none" xmlns="http://www.w3.org/2000/svg">
<path d="M0.494429 28.173C-0.00376182 28.5974 0.518775 29.3823 1.1025 29.0865L5.99907 26.604C12.3219 23.3984 20.0175 24.943 24.6137 30.3401L28.1731 34.5198C28.5975 35.018 29.3824 34.4955 29.0865 33.9117L26.604 29.0151C23.3985 22.6924 24.9431 14.9967 30.3402 10.4006L34.5199 6.84117C35.0181 6.41678 34.4956 5.63181 33.9118 5.92772L29.0152 8.4102C22.6925 11.6157 14.9968 10.0711 10.4006 4.67402L6.84123 0.494337C6.41688 -0.00385229 5.63191 0.518684 5.92777 1.10241L8.41025 5.99898C11.6158 12.3218 10.0712 20.0174 4.67411 24.6136L0.494429 28.173Z" fill="#CB5846"/>
</svg>