<svg width="16" height="16" viewBox="0 0 16 16" fill="none" xmlns="http://www.w3.org/2000/svg">
<path d="M11.0026 4.50195H14.5048V8.00414" stroke="#FD6020" stroke-width="1.00189" stroke-linecap="round" stroke-linejoin="round"/>
<path d="M1.50012 11.5034L5.29376 7.70973C5.38664 7.61683 5.49692 7.54313 5.61828 7.49285C5.73965 7.44257 5.86973 7.41669 6.0011 7.41669C6.13247 7.41669 6.26256 7.44257 6.38392 7.49285C6.50529 7.54313 6.61556 7.61683 6.70845 7.70973L8.29442 9.2957C8.3873 9.3886 8.49757 9.4623 8.61894 9.51258C8.74031 9.56286 8.87039 9.58874 9.00176 9.58874C9.13313 9.58874 9.26321 9.56286 9.38458 9.51258C9.50594 9.4623 9.61622 9.3886 9.7091 9.2957L14.0028 5.00195" stroke="#FD6020" stroke-width="1.00189" stroke-linecap="round" stroke-linejoin="round"/>
</svg>
