<svg width="13" height="16" viewBox="0 0 13 16" fill="none" xmlns="http://www.w3.org/2000/svg">
<path d="M13 4.07219V14.4609C13 15.3095 12.3159 16 11.4751 16H4.51788C3.67707 16 2.993 15.3095 2.993 14.4609V7.70597C3.21052 7.74249 3.43241 7.76617 3.66013 7.76617C3.82162 7.76617 3.98012 7.75406 4.13667 7.73537V14.4609C4.13667 14.673 4.30764 14.8457 4.51788 14.8457H11.4751C11.6853 14.8457 11.8563 14.673 11.8563 14.4609V4.07219C11.8563 3.85999 11.6852 3.68743 11.4751 3.68743H7.70128C7.70128 3.28614 7.64154 2.89938 7.53447 2.53315H11.4751C12.3159 2.53312 13 3.22356 13 4.07219ZM3.59645 7.25977C1.6133 7.25977 0 5.63145 0 3.62993C3.1492e-05 1.62832 1.6133 0 3.59645 0C5.57954 0 7.1929 1.62832 7.1929 3.62993C7.1929 5.63145 5.57954 7.25977 3.59645 7.25977ZM3.59645 6.49022C5.15902 6.49022 6.43039 5.20724 6.43039 3.62993C6.43039 2.05253 5.15921 0.769551 3.59645 0.769551C2.03363 0.769551 0.762453 2.05253 0.762453 3.62993C0.762453 5.20724 2.03382 6.49022 3.59645 6.49022ZM5.75337 4.01472C5.9638 4.01472 6.13458 3.84235 6.13458 3.62997C6.13458 3.41758 5.9638 3.24521 5.75337 3.24521H3.97766V1.73477C3.97766 1.52238 3.80688 1.35001 3.59645 1.35001C3.38602 1.35001 3.21524 1.52238 3.21524 1.73477V3.62997C3.21524 3.84235 3.38602 4.01472 3.59645 4.01472H5.75337ZM10.1533 7.13438H6.02345C5.81302 7.13438 5.64224 7.30675 5.64224 7.51914C5.64224 7.73156 5.81302 7.9039 6.02345 7.9039H10.1533C10.3638 7.9039 10.5345 7.73153 10.5345 7.51914C10.5346 7.30675 10.3638 7.13438 10.1533 7.13438ZM10.16 9.46833H6.03015C5.81973 9.46833 5.64894 9.64061 5.64894 9.85309C5.64894 10.0656 5.81973 10.2379 6.03015 10.2379H10.16C10.3705 10.2379 10.5412 10.0656 10.5412 9.85309C10.5412 9.64061 10.3707 9.46833 10.16 9.46833ZM10.16 11.8989H6.03015C5.81973 11.8989 5.64894 12.0714 5.64894 12.2836C5.64894 12.4961 5.81973 12.6684 6.03015 12.6684H10.16C10.3705 12.6684 10.5412 12.4961 10.5412 12.2836C10.5412 12.0713 10.3707 11.8989 10.16 11.8989Z" fill="black"/>
</svg>
