<svg width="17" height="18" viewBox="0 0 17 18" fill="none" xmlns="http://www.w3.org/2000/svg">
<path d="M11.6877 5.06348H15.408V9.00258" stroke="#3A67CA" stroke-width="0.875103" stroke-linecap="round" stroke-linejoin="round"/>
<path d="M1.59351 12.939L5.62337 8.67205C5.72204 8.56756 5.83918 8.48467 5.9681 8.42812C6.09702 8.37156 6.23521 8.34246 6.37476 8.34246C6.51431 8.34246 6.65249 8.37156 6.78142 8.42812C6.91034 8.48467 7.02748 8.56756 7.12615 8.67205L8.81087 10.4559C8.90954 10.5604 9.02668 10.6433 9.1556 10.6998C9.28453 10.7564 9.42271 10.7855 9.56226 10.7855C9.70181 10.7855 9.83999 10.7564 9.96892 10.6998C10.0978 10.6433 10.215 10.5604 10.3136 10.4559L14.8748 5.62646" stroke="#3A67CA" stroke-width="0.875103" stroke-linecap="round" stroke-linejoin="round"/>
</svg>
