<svg width="14" height="14" viewBox="0 0 14 14" fill="none" xmlns="http://www.w3.org/2000/svg">
<g clip-path="url(#clip0_0_7568)">
<path d="M9.61011 10.0571H12.6691V6.99814" stroke="#DD0000" stroke-width="0.875103" stroke-linecap="round" stroke-linejoin="round"/>
<path d="M1.3103 3.94145L4.62386 7.25501C4.70499 7.33615 4.80131 7.40052 4.90732 7.44444C5.01333 7.48836 5.12695 7.51096 5.24169 7.51096C5.35644 7.51096 5.47006 7.48836 5.57607 7.44444C5.68207 7.40052 5.77839 7.33615 5.85952 7.25501L7.24479 5.86974C7.32592 5.78859 7.42223 5.72422 7.52824 5.6803C7.63425 5.63639 7.74787 5.61378 7.86262 5.61378C7.97736 5.61378 8.09098 5.63639 8.19699 5.6803C8.303 5.72422 8.39932 5.78859 8.48045 5.86974L12.2308 9.62012" stroke="#DD0000" stroke-width="0.875103" stroke-linecap="round" stroke-linejoin="round"/>
</g>
<defs>
<clipPath id="clip0_0_7568">
<rect width="13.9783" height="13.9783" fill="white" transform="matrix(1 0 0 -1 0 13.9893)"/>
</clipPath>
</defs>
</svg>
