<svg className="inline-block" width="33" height="33" viewBox="0 0 48 33" fill="none" xmlns="http://www.w3.org/2000/svg">
<path d="M46.1462 4.94498C45.5603 2.9069 44.0954 1.45113 42.0446 0.868824C38.5289 -0.00463815 23.5872 -0.00463867 23.5872 -0.00463867C23.5872 -0.00463867 8.93857 -0.00463815 5.12992 0.868824C3.0791 1.45113 1.61421 2.9069 1.02826 4.94498C0.442313 8.72998 0.442322 16.3 0.442322 16.3C0.442322 16.3 0.442331 23.87 1.32125 27.655C1.9072 29.6931 3.37205 31.1488 5.42286 31.7311C8.93855 32.6046 23.8802 32.6046 23.8802 32.6046C23.8802 32.6046 38.5289 32.6046 42.3375 31.7311C44.3883 31.1488 45.8533 29.6931 46.4392 27.655C47.3181 23.87 47.3181 16.3 47.3181 16.3C47.3181 16.3 47.3181 8.72998 46.1462 4.94498ZM19.1926 23.2877V9.31229L31.4975 16.3L19.1926 23.2877Z" fill="#B0B0B0"/>
</svg>