<svg className="inline-block" width="19" height="19" viewBox="0 0 19 19" fill="none" xmlns="http://www.w3.org/2000/svg">
<path d="M17.0857 4.89733C16.9036 4.2165 16.3668 3.67975 15.686 3.49766C14.451 3.16675 9.49992 3.16675 9.49992 3.16675C9.49992 3.16675 4.54884 3.16675 3.31384 3.49766C2.633 3.67975 2.09625 4.2165 1.91417 4.89733C1.58325 6.13233 1.58325 9.50008 1.58325 9.50008C1.58325 9.50008 1.58325 12.8678 1.91417 14.1028C2.09625 14.7837 2.633 15.3204 3.31384 15.5025C4.54884 15.8334 9.49992 15.8334 9.49992 15.8334C9.49992 15.8334 14.451 15.8334 15.686 15.5025C16.3676 15.3204 16.9036 14.7837 17.0857 14.1028C17.4166 12.8678 17.4166 9.50008 17.4166 9.50008C17.4166 9.50008 17.4166 6.13233 17.0857 4.89733ZM7.91658 12.2424V6.75775L12.6666 9.50008L7.91658 12.2424Z" fill="#FF0000" />
</svg>